<svg xmlns="http://www.w3.org/2000/svg" xmlns:xlink="http://www.w3.org/1999/xlink" viewBox="0 0 119.19 168.48"><defs><style>.cls-1{fill:url(#linear-gradient);}.cls-2{fill:url(#linear-gradient-2);}</style><linearGradient id="linear-gradient" x1="71.36" y1="168.48" x2="71.36" y2="168.47" gradientUnits="userSpaceOnUse"><stop offset="0" stop-color="red"/><stop offset="0.12" stop-color="#ff0600"/><stop offset="0.26" stop-color="#ff1500"/><stop offset="0.43" stop-color="#ff3000"/><stop offset="0.61" stop-color="#ff5400"/><stop offset="0.8" stop-color="#ff8300"/><stop offset="0.99" stop-color="#ffbc00"/><stop offset="1" stop-color="#ffbf00"/></linearGradient><linearGradient id="linear-gradient-2" x1="61.47" y1="186.66" x2="55.42" y2="-27.36" xlink:href="#linear-gradient"/></defs><title>Asset 2</title><g id="Layer_2" data-name="Layer 2"><g id="Layer_1-2" data-name="Layer 1"><path class="cls-1" d="M71.39,168.47h0Z"/><path class="cls-2" d="M114.39,91.93c-5.06-10.67-12.82-20.58-20.16-29.46,16.65,44.05-2.89,62.47-2.89,62.47a63.91,63.91,0,0,0,.89-34.49C88.54,75.34,80.13,62.08,70,51.33,56.83,37.23,55.62,18.4,62.37,0c-.83,2.26-4.93,5-6.49,6.84a48.67,48.67,0,0,0-5.09,7.43,52.13,52.13,0,0,0-5.32,13.79c-2.68,12,1.17,24.15,5.79,35,4.29,10,9,20.13,3.27,30.73-3.48,6.43-10.29,11.35-17,6.64-9.06-6.41-8.8-27.32-2.73-36.32-31.87,47.25-8,70.48-8,70.48C-1.45,125.75,8.78,86.5,8.78,86.5c-34.76,91.3,44.9,81.69,44.9,81.69-24.36-4-27.26-21-27.26-21,8.69,8.81,26,7.75,26,7.75C30.69,141,36.3,116.13,36.3,116.13c2.9,20.34,23,27.23,23,27.23-5.95-18.42,5.95-39.25,5.95-39.25,7.24-11.21,2.17-19.87,2.17-19.87,19,24,12,50,6.8,62.35a15.13,15.13,0,0,0,7.59-9s.62,8.46-3.93,14.67C94.81,147.11,98.59,137,98.59,137c-4.66,26.4-25.87,31.24-27.19,31.51,10.83-2.09,18.8-5.3,24.91-9.32C116.35,146,125.53,115.42,114.39,91.93Z"/></g></g></svg>